<svg width="175" height="40" viewBox="0 0 175 40" fill="none" xmlns="http://www.w3.org/2000/svg">
<path d="M-0.000488281 9H13.1628V22.6744H9.23584V12.0669H3.90641V22.6744H-0.000488281V9Z" fill="#0F0F0F" fill-opacity="0.8"/>
<path d="M23.9377 12.2576H27.643L22.8526 23.1027C21.6857 25.7949 20.048 26.5831 17.8576 26.5831C16.6907 26.5831 15.3805 26.2179 14.6435 25.6411L15.9946 23.0836C16.445 23.4682 17.1001 23.6989 17.7143 23.6989C18.4717 23.6989 18.9016 23.4297 19.2292 22.8144L14.4797 12.2576H18.4717L21.1944 18.6224L23.9377 12.2576Z" fill="#0F0F0F" fill-opacity="0.8"/>
<path d="M38.1725 12.2576V15.1602H34.7668V22.6762H31.0672V15.1602H27.6418V12.2576H38.1725Z" fill="#0F0F0F" fill-opacity="0.8"/>
<path d="M50.678 17.1606C50.678 17.4373 50.6377 17.7931 50.6177 18.0897H42.6793C43.0016 19.1768 43.9486 19.8095 45.3589 19.8095C46.4268 19.8095 47.1321 19.5129 47.8774 18.8804L49.8924 20.9361C48.8445 22.0827 47.3133 22.6757 45.2381 22.6757C41.3495 22.6757 38.8311 20.3234 38.8311 17.1211C38.8311 13.899 41.3898 11.606 44.8351 11.606C48.0589 11.606 50.678 13.6223 50.678 17.1606ZM44.8554 14.2745C43.6666 14.2745 42.8404 14.9863 42.6189 16.1129H47.0918C46.8903 14.9863 46.0439 14.2745 44.8554 14.2745Z" fill="#0F0F0F" fill-opacity="0.8"/>
<path d="M61.3356 17.217C62.5674 17.6207 63.1834 18.4665 63.1834 19.6776C63.1834 21.5035 61.733 22.6762 58.7129 22.6762H52.6528V12.2576H58.4347C61.2362 12.2576 62.8656 13.238 62.8656 14.9679C62.8656 15.9675 62.3091 16.7557 61.3356 17.217ZM56.0306 14.6026V16.4481H58.097C58.9712 16.4481 59.4083 16.1213 59.4083 15.5062C59.4083 14.8911 58.9712 14.6026 58.097 14.6026H56.0306ZM58.3752 20.3118C59.2891 20.3118 59.746 19.9851 59.746 19.3507C59.746 18.7163 59.3089 18.3896 58.4149 18.3896H56.0306V20.3118H58.3752Z" fill="#0F0F0F" fill-opacity="0.8"/>
<path d="M70.423 22.6757C66.9967 22.6757 64.4995 20.363 64.4995 17.1211C64.4995 13.899 66.9967 11.606 70.423 11.606C73.888 11.606 76.3465 13.899 76.3465 17.1211C76.3465 20.363 73.888 22.6757 70.423 22.6757ZM70.423 19.6909C71.6813 19.6909 72.6299 18.7618 72.6299 17.1211C72.6299 15.5002 71.6813 14.591 70.423 14.591C69.1841 14.591 68.2163 15.5002 68.2163 17.1211C68.2163 18.7618 69.1841 19.6909 70.423 19.6909Z" fill="#0F0F0F" fill-opacity="0.8"/>
<path d="M89.3321 20.0238H90.8258V25.2808H87.3206V23.0505H80.5294V25.2808H77.0044V20.0238H77.4027C78.8167 20.0038 79.1154 18.1718 79.215 16.0211L79.3543 12.2576H89.3321V20.0238ZM82.6206 16.2999C82.5607 17.9129 82.4612 19.2669 81.804 20.0238H85.5481V15.2644H82.6604L82.6206 16.2999Z" fill="#0F0F0F" fill-opacity="0.8"/>
<path d="M92.8003 22.6762V12.2576H96.4844V16.1212H100.285V12.2576H103.989V22.6762H100.285V19.0238H96.4844V22.6762H92.8003Z" fill="#0F0F0F" fill-opacity="0.8"/>
<path d="M111.083 11.606C114.521 11.606 116.494 13.1479 116.494 16.5478V22.4977H113.036V21.1141C112.509 22.1419 111.454 22.6757 109.91 22.6757C107.37 22.6757 105.964 21.2327 105.964 19.3746C105.964 17.3978 107.39 16.1723 110.672 16.1723H112.782C112.724 15.085 112.001 14.4724 110.535 14.4724C109.519 14.4724 108.386 14.8282 107.663 15.4013L106.413 12.8513C107.624 12.041 109.422 11.606 111.083 11.606ZM110.946 20.3036C111.766 20.3036 112.489 19.9082 112.782 19.0582V18.1293H111.18C109.988 18.1293 109.559 18.5641 109.559 19.2163C109.559 19.849 110.066 20.3036 110.946 20.3036Z" fill="#0F0F0F" fill-opacity="0.8"/>
<path d="M123.465 12.2576H128.999V22.6762H125.573V19.8505H123.83L121.884 22.6762H117.81L120.242 19.3507C118.803 18.7547 117.992 17.6783 117.992 16.179C117.992 13.68 120.101 12.2576 123.465 12.2576ZM123.546 15.141C122.513 15.141 121.925 15.487 121.925 16.3135C121.925 17.1594 122.472 17.5054 123.526 17.5054H125.573V15.141H123.546Z" fill="#0F0F0F" fill-opacity="0.8"/>
<path d="M89.9227 31.6581C90.9099 31.8638 91.4835 32.3963 91.4835 33.1469C91.4835 34.2967 90.0828 35.047 88.3351 35.047C87.3344 35.047 86.3071 34.7807 85.5601 34.2602L85.8803 33.6189C86.534 34.0667 87.4412 34.3087 88.295 34.3087C89.5625 34.3087 90.5096 33.8488 90.5096 33.0742C90.5096 32.3963 89.7892 31.9969 88.6152 31.9969H87.4145V31.3676H88.5618C89.5892 31.3676 90.3095 30.9924 90.3095 30.3629C90.3095 29.661 89.4824 29.2736 88.3618 29.2736C87.6412 29.2736 86.8675 29.4431 86.1205 29.794L85.8536 29.1285C86.7208 28.7169 87.6013 28.5354 88.4551 28.5354C90.0561 28.5354 91.2835 29.2009 91.2835 30.2419C91.2835 30.9076 90.7363 31.416 89.9227 31.6581Z" fill="#0F0F0F" fill-opacity="0.8"/>
<path d="M97.4494 31.6799C98.3191 31.8903 98.724 32.4226 98.724 33.2767C98.724 34.4033 97.9378 35.047 96.3058 35.047H93.4587V28.5354H96.2225C97.6401 28.5354 98.5096 29.1295 98.5096 30.2065C98.5096 30.9369 98.1046 31.4322 97.4494 31.6799ZM94.2806 29.2286V31.4322H96.1628C97.1278 31.4322 97.6639 31.0485 97.6639 30.318C97.6639 29.5876 97.1278 29.2286 96.1628 29.2286H94.2806ZM96.2701 34.3538C97.3303 34.3538 97.8902 34.0071 97.8902 33.2273C97.8902 32.4474 97.4138 32.0884 96.3534 32.0884H94.2806V34.3538H96.2701Z" fill="#0F0F0F" fill-opacity="0.8"/>
<path d="M107.28 31.7851C107.28 31.8581 107.268 31.9555 107.268 32.0529H101.611C101.714 33.3916 102.794 34.2802 104.272 34.2802C105.095 34.2802 105.828 34.0003 106.342 33.4403L106.856 34.0003C106.252 34.6818 105.314 35.047 104.247 35.047C102.139 35.047 100.699 33.6838 100.699 31.7851C100.699 29.8864 102.1 28.5354 104.003 28.5354C105.905 28.5354 107.28 29.862 107.28 31.7851ZM104.003 29.2777C102.691 29.2777 101.727 30.154 101.611 31.4078H106.406C106.291 30.154 105.326 29.2777 104.003 29.2777Z" fill="#0F0F0F" fill-opacity="0.8"/>
<path d="M112.301 31.6581C113.289 31.8638 113.862 32.3963 113.862 33.1469C113.862 34.2967 112.461 35.047 110.714 35.047C109.713 35.047 108.686 34.7807 107.939 34.2602L108.259 33.6189C108.913 34.0667 109.82 34.3087 110.674 34.3087C111.941 34.3087 112.888 33.8488 112.888 33.0742C112.888 32.3963 112.168 31.9969 110.994 31.9969H109.793V31.3676H110.94C111.968 31.3676 112.688 30.9924 112.688 30.3629C112.688 29.661 111.861 29.2736 110.74 29.2736C110.02 29.2736 109.246 29.4431 108.499 29.794L108.232 29.1285C109.099 28.7169 109.98 28.5354 110.834 28.5354C112.435 28.5354 113.662 29.2009 113.662 30.2419C113.662 30.9076 113.115 31.416 112.301 31.6581Z" fill="#0F0F0F" fill-opacity="0.8"/>
<path d="M121.348 34.5504H122.418V37.0005H121.544V35.3541H115.395V37.0005H114.521V34.5504H114.912C115.93 34.4857 116.1 32.6578 116.192 30.8168L116.283 28.5354H121.348V34.5504ZM117.04 30.8687C116.975 32.4244 116.831 34.0318 116.139 34.5504H120.421V29.352H117.118L117.04 30.8687Z" fill="#0F0F0F" fill-opacity="0.8"/>
<path d="M126.139 28.5354C127.965 28.5354 129 29.363 129 31.0182V34.9861H128.086V33.988C127.656 34.6454 126.824 35.047 125.655 35.047C124.057 35.047 123.076 34.2923 123.076 33.1848C123.076 32.1988 123.775 31.3712 125.803 31.3712H128.046V30.9818C128.046 29.8864 127.361 29.29 126.044 29.29C125.131 29.29 124.272 29.5821 123.694 30.0445L123.264 29.3994C123.976 28.8517 125.024 28.5354 126.139 28.5354ZM125.803 34.3653C126.877 34.3653 127.67 33.9029 128.046 33.063V32.0163H125.83C124.46 32.0163 124.016 32.5032 124.016 33.1604C124.016 33.9029 124.675 34.3653 125.803 34.3653Z" fill="#0F0F0F" fill-opacity="0.8"/>
<rect width="40" height="40" transform="translate(135)" fill="white"/>
<path d="M156.39 14.5841L155.087 3.81994L153.534 14.6785L147.987 10.9213L151.577 16.6195L142.552 17.7918L151.549 19.3256L147.841 24.8981L153.464 21.3814L154.774 36.2422L156.319 21.4111L161.917 25.0447L158.177 19.3946L167.254 18.0491L158.206 16.6886L162.063 11.068L156.39 14.5841Z" fill="#0F0F0F" fill-opacity="0.8" stroke="#40311E" stroke-width="0.22341"/>
</svg>
